<?xml version="1.0" encoding="utf-8"?>
<!-- Generator: Adobe Illustrator 19.2.1, SVG Export Plug-In . SVG Version: 6.00 Build 0)  -->
<svg version="1.1" id="Layer_1" xmlns="http://www.w3.org/2000/svg" xmlns:xlink="http://www.w3.org/1999/xlink" x="0px" y="0px"
	 viewBox="0 0 283.7 117.6" style="enable-background:new 0 0 283.7 117.6;" xml:space="preserve">
<style type="text/css">
	.st0{fill:#FEFEFD;}
	.st1{fill:#E24F37;}
	.st2{fill:#1A9149;}
	.st3{fill:#ED8E39;}
	.st4{fill:#F2E629;}
	.st5{fill:#199049;}
</style>
<g>
	<path class="st0" d="M0.2,100.3c0-33,0-66,0-99c0-1,0.3-1.1,1.2-1.1c77.8,0,155.5,0,233.3,0c-0.9,0.8-1.1,1.8-1.2,2.9
		c-0.2,2.8,0.1,5.5,0.4,8.2c0.4,3.7,0.8,7.3,1.1,11c0,0.5,0.1,1-0.5,1.2c-0.6,0.2-0.8-0.4-1-0.8c-1.7-2.7-3-5.5-4.4-8.3
		c-0.8-1.6-1.7-3.2-3.1-4.6c-1.2-1.2-2.4-1.5-3.4-1c-1.1,0.6-1.4,1.6-1,3.4c0.1,0.4,0.2,0.8,0.3,1.2c1.4,3.3,2.7,6.8,4.8,9.7
		c0.7,0.9,1.3,1.8,1.6,2.9c0.4,1.5-0.7,2.7-2.2,2.4c-0.9-0.2-1.8-0.7-2.5-1.3c-1.4-1-2.7-2-4.1-2.9c-0.6-0.4-1.3-0.8-2-0.9
		c-1-0.2-1.8,0.2-2.4,1c-0.5,0.8-0.1,1.5,0.3,2.1c1,1.5,2.4,2.7,3.9,3.7c1.7,1.2,3.5,2.4,5.2,3.7c0.4,0.3,0.8,0.6,0.9,1.2
		c0.8,3.3,2.7,6,4.7,8.7c0.3,0.4,0.7,0.7,1.3,0.7c2.3,0,4.6,0,6.8,0c0.1,0,0.2,0,0.2,0.1c6.8,0.6,12.2,3.3,15.5,9.5
		c0.3,0.5,0.6,0.5,1.1,0.4c3-0.6,5.9-1.6,8.5-3.2c1.4-0.9,2.9-1.1,4.4-0.9c1,0.1,2,0.3,3,0.3c2.4,0.1,4.8,0.6,7.2,0.2
		c1.3-0.2,1.7-0.9,1.6-2.2c-0.1-1.1-0.8-1.6-1.7-1.9c-1.5-0.5-3-0.6-4.6-0.8c-1.5-0.1-3.1-0.1-4.6-0.6c-0.8-0.3-1.4-0.7-1.6-1.6
		c-0.1-0.9,0.5-1.4,1.2-1.7c0.7-0.4,1.5-0.7,2.3-1c3.6-1.3,7-3,10.5-4.6c2.1-1,2.7-2.2,2.2-3.6c-0.4-1.2-1.8-1.6-3.9-1.2
		c-1.7,0.3-3.3,1-4.9,1.6c-2.7,1.2-5.3,2.5-8,3.5c-0.4,0.2-0.9,0.5-1.3,0c-0.3-0.5,0-0.9,0.3-1.3c0.1-0.2,0.2-0.3,0.4-0.5
		c3-4,6.2-7.8,9.4-11.7c1.4-1.7,2.8-3.5,3.7-5.6c0.3-0.8,0.6-1.6-0.1-2.4c-0.8-0.8-1.7-1.1-2.8-0.8c-0.7,0.2-1.3,0.6-1.9,1
		c-0.9,0.7-1.7,1.5-2.5,2.4c-2.6,3.1-5,6.3-7.7,9.3c-0.9-1-2.1-1.3-3.3-1.1c0.7-2.7,1.5-5.4,2.2-8.2c0.6-2.1,1.2-4.2,1.2-6.4
		c0-0.8-0.1-1.7-1.1-2.1c-1-0.4-2-0.5-2.9,0.3c-0.6,0.6-1.1,1.3-1.5,2c-1.1,2.3-2.1,4.6-2.9,7.1c-1.1,3.4-2.1,6.8-4,9.8
		c-0.9,1.4-2,2.2-3.7,2c-0.2-0.4,0-0.7,0-1.1c0.6-5.1,1.8-10,3.6-14.8c1-2.5,1.9-5.1,2.1-7.8c0.1-1.1-0.2-2.1-1.3-2.6
		c-1.2-0.5-2.1-0.3-3.1,0.9c-0.7,0.8-1.2,1.6-1.6,2.5c-2.1,4.3-3.4,8.9-5,13.4c-0.4-0.3-0.9-0.7-1.3-1c-0.1-5-1.1-9.9-1.9-14.8
		c-0.3-2-0.8-3.9-2.9-4.9c15.4,0,30.7,0,46.1,0c0.8,0,1,0.1,1,1c0,38.5,0,76.9,0,115.4c0,0.9-0.2,1-1.1,1c-93.8,0-187.6,0-281.3,0
		c-0.9,0-1.1-0.2-1.1-1.1c0.1-3.9,0-7.8,0-11.6c0.1,0.1,0.2,0.2,0.2,0.4c1.3,5.8,5,9.3,10.8,10.5c2.7,0.6,5.5,0.2,8.3,0.3
		c0.7,0,1.4,0.1,2.1,0.3c2.8,0.9,5.7,0.8,8.5-0.2c0.5-0.2,0.9-0.4,1.5-0.3c2,0.3,4.1,0.1,6.1,0.1c4.2,0,8.5,0.1,12.7,0
		c4.4-0.1,8.8,0.4,13.2-0.4c0.5-0.1,0.8,0.1,1.2,0.3c2.9,1.3,5.9,1.9,8.9,0.9c2.3-0.8,4.6-0.9,7-0.8c5.3,0.3,10.5-0.2,15.8,0
		c4.6,0.2,9.1,0,13.7,0c2.3,0,4.5-0.4,6.6-1.5c0.5-0.3,0.9-0.3,1.4,0c1.6,0.9,3.3,1.4,5.1,1.5c4.3,0.1,8.6,0,13,0.1
		c4.2,0.1,7.7-1.4,10.6-4.5c0.5-0.5,0.7-0.5,1.3-0.1c9.9,7,20.3,7.7,31.3,2.7c0.5-0.2,0.8-0.3,1.3,0c2.4,1.4,5,1.9,7.8,1.9
		c10.1,0,20.2,0,30.4,0c0.6,0,1.3,0.1,1.9,0.3c2.9,1,5.8,0.9,8.7-0.1c0.4-0.1,0.8-0.3,1.3-0.3c5.4,0.3,10.9,0.1,16.3,0.1
		c0.9,0,1.8-0.1,2.7-0.3c8.1-1.6,12.5-9,10.4-17.3c-3.2-12.9-6.2-25.9-8.8-38.9c-1.3-6.7-7.1-11.5-14-11.5c-4.9,0-9.8,0-14.8,0
		c-3.3,0-6.3,0.9-8.9,3c-0.5,0.4-0.8,0.5-1.4,0c-2.5-2.1-5.5-3-8.8-3c-5.9,0-11.8,0-17.8,0c-1.9,0-3.7,0.3-5.5,1.1
		c-0.6,0.3-1.1,0.3-1.7,0c-8.4-3.5-16.8-3.5-25.2-0.2c-0.5,0.2-1,0.2-1.5,0c-1.8-0.7-3.7-0.9-5.6-0.9c-11.8,0-23.5,0-35.3,0
		c-10.9,0-21.8,0-32.6,0c-2.5,0-4.9,0.5-7.1,1.7c-0.5,0.3-0.9,0.3-1.4,0c-2.2-1.2-4.5-1.7-7-1.7c-4.4,0-8.7,0-13.1,0
		c-1.9,0-3.7,0.2-5.6,0.7c-1.9,0.5-3.7-0.9-5.6-0.7c0,0-0.1,0-0.1,0c-5.2,0-10.4,0-15.6,0c-6.5,0-12.4,4.9-13.6,11.2
		c-1.7,9.6-3.6,19.2-6,28.7C2.3,92.2,1.4,96.3,0.2,100.3z"/>
	<path class="st1" d="M0.2,100.3c1.2-4,2.1-8.2,3.1-12.3c2.4-9.5,4.3-19.1,6-28.7c1.1-6.4,7.1-11.2,13.6-11.2c5.2,0,10.4,0,15.6,0
		c0,0,0.1,0,0.1,0c1.9-0.2,3.7,1.2,5.6,0.7c1.8-0.5,3.7-0.7,5.6-0.7c4.4,0,8.7,0,13.1,0c2.5,0,4.8,0.5,7,1.7c0.5,0.3,0.9,0.3,1.4,0
		c2.2-1.2,4.6-1.7,7.1-1.7c10.9,0,21.8,0,32.6,0c11.8,0,23.5,0,35.3,0c1.9,0,3.8,0.2,5.6,0.9c0.5,0.2,1,0.2,1.5,0
		c8.4-3.3,16.8-3.3,25.2,0.2c0.6,0.3,1.1,0.3,1.7,0c1.7-0.8,3.6-1.1,5.5-1.1c5.9,0,11.8,0,17.8,0c3.3,0,6.2,0.9,8.8,3
		c0.6,0.5,0.9,0.4,1.4,0c2.6-2.1,5.6-3,8.9-3c4.9,0,9.8,0,14.8,0c6.9,0,12.6,4.8,14,11.5c2.6,13,5.6,26,8.8,38.9
		c2.1,8.3-2.4,15.6-10.4,17.3c-0.9,0.2-1.8,0.3-2.7,0.3c-5.4-0.1-10.9,0.2-16.3-0.1c-0.5,0-0.9,0.1-1.3,0.3c-2.9,1-5.8,1.1-8.7,0.1
		c-0.6-0.2-1.2-0.3-1.9-0.3c-10.1,0-20.2,0-30.4,0c-2.8,0-5.4-0.5-7.8-1.9c-0.5-0.3-0.8-0.2-1.3,0c-10.9,5.1-21.4,4.3-31.3-2.7
		c-0.5-0.4-0.8-0.4-1.3,0.1c-2.9,3-6.4,4.5-10.6,4.5c-4.3-0.1-8.6,0-13-0.1c-1.8,0-3.5-0.6-5.1-1.5c-0.5-0.3-0.9-0.3-1.4,0
		c-2,1.1-4.3,1.5-6.6,1.5c-4.6,0-9.1,0.2-13.7,0c-5.3-0.2-10.5,0.3-15.8,0c-2.4-0.1-4.6,0-7,0.8c-3,1-6,0.5-8.9-0.9
		c-0.4-0.2-0.7-0.4-1.2-0.3c-4.4,0.9-8.8,0.3-13.2,0.4c-4.2,0.1-8.5,0-12.7,0c-2,0-4.1,0.1-6.1-0.1c-0.6-0.1-1,0.1-1.5,0.3
		c-2.8,1-5.6,1.1-8.5,0.2c-0.7-0.2-1.4-0.3-2.1-0.3c-2.8,0-5.5,0.3-8.3-0.3c-5.8-1.2-9.5-4.7-10.8-10.5c0-0.1-0.1-0.3-0.2-0.4
		C0.2,103.4,0.2,101.8,0.2,100.3z M146,102.8c1.7,1.8,3.2,3.6,5.1,4.9c5.8,4.3,12.2,5.6,19.2,4.5c3.4-0.5,6.5-1.8,9.3-3.8
		c0.6-0.4,1-0.4,1.6,0.1c1.8,1.8,3.9,2.7,6.6,2.7c10.7-0.1,21.4,0,32,0c0.5,0,1,0,1.5,0.2c2,1,4.1,1.1,6,0.4
		c1.6-0.6,3.2-0.7,4.9-0.7c5.1,0.2,10.2,0.1,15.4,0c0.4,0,0.9,0,1.3-0.1c5.3-1.2,7.9-5.6,6.7-11c-2-8.5-4.2-17-6-25.6
		c-1-4.6-2-9.1-2.8-13.7c-0.8-4.7-5.3-8-9.2-7.8c-5,0.2-10.1,0.1-15.1,0c-3.5-0.1-5.9,1.6-7.9,4.2c-1.2,1.6-1.3,3.6-1.8,5.4
		c-0.1-0.3-0.1-0.6-0.1-0.9c0.3-4.3-4-8.8-8.8-8.7c-6.2,0.2-12.5,0.1-18.7,0c-1.7,0-3.2,0.6-4.6,1.5c-0.7,0.5-1.2,0.5-1.9,0.1
		c-3.6-2.2-7.7-3.1-11.9-3.3c-4.7-0.2-9.3,0.7-13.5,3c-0.6,0.3-1,0.3-1.6-0.1c-1.4-0.9-2.9-1.3-4.7-1.3c-23.2,0-46.4,0-69.6,0
		c-1.5,0-2.9,0.4-4.2,1.2c-0.7,0.4-1.4,0.9-2,1.4c-0.5,0.4-0.8,0.4-1.4-0.1c-2-1.7-4.2-2.7-7-2.6c-4.9,0.1-9.8,0-14.6,0
		c-1.4,0-2.8,0.3-4,1.1c-0.6,0.4-1,0.3-1.5,0c-1.4-0.9-3-1.1-4.7-1.1c-5.1,0.1-10.2,0-15.4,0c-4.1,0-8.2,3.5-8.8,7.6
		c-1,7-2.4,14-4.1,20.9C8.4,88,6.8,94.4,5.3,100.8C4,106,8,111.1,13.3,111.1c2.1,0,4.2,0,6.2,0c1.1,0,2.2,0.1,3.3,0.5
		c1.6,0.7,3.4,0.8,5,0.2c1.9-0.8,3.7-0.7,5.7-0.7c8.8,0.1,17.5,0,26.3,0.1c1.4,0,2.8-0.1,4.1-0.8c0.5-0.2,0.9-0.2,1.3,0.1
		c3,2.3,6.4,2.6,9.7,0.6c0.9-0.5,1.6-0.8,2.6-0.3c0.6,0.3,1.4,0.3,2.1,0.3c5.7,0.2,11.4-0.2,17.2,0c4.6,0.1,9.1,0,13.7,0
		c2.4,0,4.5-0.8,6.1-2.5c0.6-0.6,0.9-0.6,1.5,0c1.5,1.4,3.2,2.5,5.3,2.5c4.8,0.1,9.5,0.1,14.3,0c2.4,0,4.3-1.2,5.9-3
		C144.9,106.6,145.6,104.8,146,102.8z"/>
	<path class="st2" d="M236.6,0.2c2.1,1,2.5,2.9,2.9,4.9c0.8,4.9,1.8,9.8,1.9,14.8c-2.8-0.7-3.7,0-3.6,2.9c0,0.4,0.1,0.9,0.2,1.3
		c0.5,2.9,1.3,5.8,2.3,8.5c0.8,2.2,0.6,4-0.6,5.9c-1,1.7-1.6,3.7-1.6,5.8c-2.3,0-4.6,0-6.8,0c-0.6,0-1-0.3-1.3-0.7
		c-2-2.6-3.9-5.4-4.7-8.7c-0.1-0.6-0.5-0.9-0.9-1.2c-1.7-1.2-3.4-2.5-5.2-3.7c-1.5-1-2.9-2.2-3.9-3.7c-0.4-0.6-0.8-1.3-0.3-2.1
		c0.6-0.8,1.4-1.2,2.4-1c0.8,0.1,1.4,0.5,2,0.9c1.4,1,2.7,2,4.1,2.9c0.8,0.6,1.6,1.1,2.5,1.3c1.5,0.4,2.7-0.9,2.2-2.4
		c-0.3-1.1-1-2-1.6-2.9c-2.2-3-3.4-6.4-4.8-9.7c-0.2-0.4-0.2-0.8-0.3-1.2c-0.4-1.7,0-2.8,1-3.4c1.1-0.5,2.2-0.2,3.4,1
		c1.3,1.3,2.2,2.9,3.1,4.6c1.4,2.8,2.7,5.7,4.4,8.3c0.2,0.4,0.4,1,1,0.8c0.6-0.2,0.5-0.8,0.5-1.2c-0.4-3.7-0.7-7.3-1.1-11
		c-0.3-2.7-0.6-5.5-0.4-8.2c0.1-1.1,0.3-2.1,1.2-2.9C235.4,0.2,236,0.2,236.6,0.2z"/>
	<path class="st1" d="M238.1,44.3c0-2.1,0.6-4,1.6-5.8c1.2-1.9,1.4-3.7,0.6-5.9c-1-2.8-1.8-5.6-2.3-8.5c-0.1-0.4-0.1-0.9-0.2-1.3
		c-0.1-2.9,0.8-3.6,3.6-2.9c0.4,0.3,0.9,0.7,1.3,1c1.1,1.8,1.6,3.8,1.8,5.9c0.2,2,2,3.7,3.5,3.6c1.7,0.2,2.8-0.6,3.7-2
		c1.9-3.1,2.9-6.5,4-9.8c0.8-2.4,1.8-4.8,2.9-7.1c0.4-0.8,0.8-1.5,1.5-2c0.9-0.8,1.9-0.7,2.9-0.3c1,0.4,1.1,1.2,1.1,2.1
		c0,2.2-0.6,4.3-1.2,6.4c-0.7,2.7-1.5,5.5-2.2,8.2c-0.4,0.8-0.5,1.6-0.5,2.4c0,1.2,0.6,1.6,1.7,1c0.9-0.5,1.7-1.3,2.2-2.3
		c2.7-3,5.2-6.2,7.7-9.3c0.7-0.9,1.5-1.7,2.5-2.4c0.6-0.4,1.2-0.8,1.9-1c1.1-0.3,2.1,0,2.8,0.8c0.7,0.7,0.4,1.6,0.1,2.4
		c-0.9,2.1-2.3,3.8-3.7,5.6c-3.2,3.8-6.5,7.6-9.4,11.7c-0.1,0.2-0.2,0.3-0.4,0.5c-0.3,0.4-0.6,0.8-0.3,1.3c0.4,0.5,0.9,0.2,1.3,0
		c2.7-1,5.3-2.3,8-3.5c1.6-0.7,3.2-1.3,4.9-1.6c2.1-0.4,3.4,0,3.9,1.2c0.5,1.4-0.1,2.6-2.2,3.6c-3.5,1.6-6.9,3.4-10.5,4.6
		c-0.8,0.3-1.6,0.6-2.3,1c-0.7,0.4-1.3,0.8-1.2,1.7c0.1,0.9,0.8,1.4,1.6,1.6c1.5,0.5,3.1,0.5,4.6,0.6c1.6,0.1,3.1,0.2,4.6,0.8
		c0.9,0.3,1.6,0.8,1.7,1.9c0.1,1.3-0.3,2-1.6,2.2c-2.4,0.4-4.8,0-7.2-0.2c-1-0.1-2-0.2-3-0.3c-1.6-0.2-3,0-4.4,0.9
		c-2.6,1.6-5.5,2.6-8.5,3.2c-0.5,0.1-0.8,0.2-1.1-0.4c-3.3-6.2-8.7-8.9-15.5-9.5C238.3,44.4,238.2,44.3,238.1,44.3z"/>
	<path class="st2" d="M248.1,30.4c-1.5,0.1-3.3-1.6-3.5-3.6c-0.2-2.1-0.7-4.1-1.8-5.9c1.6-4.5,2.9-9.1,5-13.4c0.4-0.9,1-1.8,1.6-2.5
		c0.9-1.1,1.9-1.4,3.1-0.9c1.1,0.5,1.4,1.5,1.3,2.6c-0.2,2.7-1.1,5.3-2.1,7.8c-1.9,4.8-3,9.7-3.6,14.8
		C248,29.7,247.9,30.1,248.1,30.4z"/>
	<path class="st2" d="M264,27c-0.4,1-1.2,1.8-2.2,2.3c-1.1,0.6-1.7,0.2-1.7-1c0-0.8,0.1-1.7,0.5-2.4C262,25.7,263.1,26,264,27z"/>
	<path class="st3" d="M146,102.8c-0.3,2.1-1,3.8-2.4,5.3c-1.6,1.8-3.5,2.9-5.9,3c-4.8,0.1-9.5,0.1-14.3,0c-2.1,0-3.8-1-5.3-2.5
		c-0.6-0.6-0.9-0.6-1.5,0c-1.7,1.7-3.7,2.6-6.1,2.5c-4.6,0-9.1,0.1-13.7,0c-5.7-0.2-11.4,0.2-17.2,0c-0.7,0-1.5,0-2.1-0.3
		c-1-0.6-1.8-0.3-2.6,0.3c-3.3,2-6.7,1.7-9.7-0.6c-0.4-0.3-0.8-0.4-1.3-0.1c-1.3,0.6-2.6,0.8-4.1,0.8c-8.8,0-17.5,0-26.3-0.1
		c-2,0-3.8-0.1-5.7,0.7c-1.6,0.7-3.4,0.5-5-0.2c-1.1-0.4-2.1-0.5-3.3-0.5c-2.1,0-4.2,0-6.2,0c-5.3,0-9.3-5.1-8.1-10.4
		C6.8,94.4,8.4,88,9.9,81.6c1.6-6.9,3.1-13.9,4.1-20.9c0.6-4.1,4.7-7.6,8.8-7.6c5.1,0,10.2,0,15.4,0c1.7,0,3.3,0.2,4.7,1.1
		c0.5,0.3,0.9,0.3,1.5,0c1.2-0.8,2.6-1.1,4-1.1c4.9,0,9.8,0.1,14.6,0c2.8-0.1,5,1,7,2.6c0.6,0.5,0.9,0.5,1.4,0.1
		c0.6-0.5,1.3-1,2-1.4c1.3-0.8,2.6-1.2,4.2-1.2c23.2,0,46.4,0,69.6,0c1.7,0,3.2,0.4,4.7,1.3c0.6,0.4,1,0.4,1.6,0.1
		c4.2-2.2,8.8-3.1,13.5-3c4.2,0.2,8.2,1.1,11.9,3.3c0.6,0.4,1.2,0.4,1.9-0.1c1.3-1,2.9-1.5,4.6-1.5c6.2,0,12.5,0.1,18.7,0
		c4.7-0.1,9.1,4.4,8.8,8.7c0,0.3,0,0.6,0.1,0.9c0.5-1.8,0.5-3.8,1.8-5.4c2-2.6,4.4-4.3,7.9-4.2c5,0.1,10.1,0.2,15.1,0
		c3.9-0.2,8.5,3.2,9.2,7.8c0.8,4.6,1.9,9.1,2.8,13.7c1.8,8.6,3.9,17.1,6,25.6c1.3,5.3-1.4,9.8-6.7,11c-0.4,0.1-0.9,0.1-1.3,0.1
		c-5.1,0-10.2,0.1-15.4,0c-1.7-0.1-3.2,0-4.9,0.7c-2,0.7-4.1,0.6-6-0.4c-0.5-0.3-1-0.2-1.5-0.2c-10.7,0-21.4,0-32,0
		c-2.6,0-4.8-0.8-6.6-2.7c-0.5-0.5-1-0.6-1.6-0.1c-2.8,2-5.9,3.3-9.3,3.8c-7,1.1-13.5-0.2-19.2-4.5
		C149.2,106.3,147.7,104.6,146,102.8z M44.9,69.8c-0.1,0-0.1,0-0.2,0c-0.4-1.8-0.8-3.6-1.2-5.5c-0.1-0.6-0.3-1.3-0.3-1.9
		c-0.3-3-2.5-5.1-5.6-5c-4.9,0.2-9.9,0.1-14.9,0.1c-2,0-3.9,1.7-4.3,3.7c-1.2,7.2-2.5,14.4-4.2,21.5c-1.5,6.2-3,12.4-4.5,18.6
		c-0.7,2.9,1,5.1,4,5.1c2.4,0,4.9,0,7.3,0c1,0,2.1-0.3,3,0.6c0.2,0.2,0.7,0.2,1.1,0.3c1.4,0.2,2.7-0.3,3.7-1.3
		c0.8-0.8,1.5-1.1,2.5-0.2c0.5,0.5,1.3,0.6,2,0.6c9,0,18,0,27,0c1.5,0,2.6-0.7,3.4-1.8c0.4-0.5,0.6-1.2,0.9-1.9c0.8,1,1.5,2,2.3,3
		c1.9,2.6,4.5,2.8,6.7,0.4c0.7-0.8,1.3-1.8,2-2.6c0.3,0.1,0.4,0.3,0.5,0.5c1,1.6,2.2,2.6,4.3,2.5c3.1-0.1,6.2,0,9.2,0
		c0.6,0,1.2,0.1,1.6-0.3c0.9-0.7,1.7-0.9,2.6-0.1c0.5,0.4,1.3,0.4,2,0.4c4.7,0,9.4-0.2,14,0.1c3,0.1,5-2.4,5-5
		c0-3.8,0.1-7.7,0.3-11.5c0.1-2.1,0.1-4.1,0.2-6.2c0.1-1.2,0.7-1.6,2.9-1.5c0.9,0,0.7,0.9,0.7,1.4c0.2,4,0.2,8,0.6,11.9
		c0.2,2.4,0,4.8,0.4,7.2c0.3,2,2.1,3.6,4.1,3.6c4.3,0,8.6,0,13,0c2.2,0,4.1-1.8,4.3-3.9c0.3-4.3,0.5-8.7,0.7-13
		c0.1-2.1,0.2-4.2,0.5-6.3c0-0.4,0-0.9,0.6-0.9c0.6,0,0.6,0.5,0.6,1c0.2,4.6,1.3,9.1,3.6,13.1c3.6,6.5,8.9,10.7,16.5,11.4
		c6.2,0.6,11.6-1.3,16.1-5.8c1-1,1.8-2.1,2.7-3.2c0.5,0.7,0.3,1.5,0.4,2.1c0.1,1.1-0.1,2.2,0.5,3.3c1.1,1.9,2.9,2.4,4.9,2.4
		c4.3,0,8.6,0.1,12.8,0c3.6,0,7.2,0,10.8-0.1c2.4-0.1,4.9,0.1,7.3,0.1c1.5,0,3-0.5,4.3,0.6c0.2,0.2,0.5,0.1,0.8,0.1
		c1.4,0.1,2.6-0.4,3.6-1.4c0.7-0.7,1.4-1.1,2.4-0.3c0.7,0.6,1.6,0.9,2.5,0.8c4.9-0.1,9.8,0.3,14.6-0.2c2.9-0.3,4.3-2.4,3.6-5.3
		c-0.8-3.3-1.5-6.5-2.3-9.8c-2.5-10-4.7-20.1-6.6-30.2c-0.4-2.1-2.3-3.7-4.5-3.7c-5.2,0-10.3,0-15.5,0c-2.3,0-4.1,1.6-4.5,3.8
		c-1.6,9.2-3.4,18.4-5.6,27.5c-0.3,1.1-0.8,1.5-1.7,1.6c-0.8,0.1-1.6,0.2-2.4,0.3c-0.8,0.1-1.1-0.1-1-1c0.1-1.2,0.2-2.4,0.2-3.6
		c0.1-3.1,0.3-6.1,0.4-9.2c0.3-5.1,0.4-10.1,0.5-15.2c0.1-2.4-1.8-4.2-4.2-4.2c-6.1,0-12.2,0-18.4,0c-1.3,0-2.2,0.4-3.1,1.3
		c-0.9,0.9-1.2,1.9-1.3,3.2c-0.3-0.2-0.4-0.3-0.5-0.4c-5.4-5.1-11.9-6.6-19.1-5.3c-3.5,0.6-6.5,2-9.3,4.2c-0.4,0.3-0.8,0.8-1.1-0.1
		c-0.8-2-2.3-2.9-4.5-2.8c-22.8,0-45.5,0-68.3,0c-2.5,0-4.3,1-5.3,3.3c-0.6,1.4-1.2,2.8-1.9,4.1c-0.2,0.3-0.2,0.9-0.7,0.8
		c-0.4,0-0.5-0.5-0.6-0.8c-0.7-1.5-1.2-3-2-4.5c-0.9-1.9-2.4-3-4.6-3c-4.8,0-9.5,0.1-14.3,0c-2.8-0.1-4.9,1.9-4.7,4.8
		C44.6,64.8,44.7,67.3,44.9,69.8z"/>
	<path class="st4" d="M44.9,69.8c-0.2-2.5-0.3-5-0.5-7.5c-0.3-2.8,1.9-4.9,4.7-4.8c4.8,0.2,9.5,0.1,14.3,0c2.2,0,3.7,1.1,4.6,3
		c0.7,1.5,1.3,3,2,4.5c0.1,0.3,0.2,0.8,0.6,0.8c0.5,0,0.6-0.5,0.7-0.8c0.6-1.4,1.3-2.8,1.9-4.1c1-2.3,2.7-3.3,5.3-3.3
		c22.8,0,45.5,0,68.3,0c2.2,0,3.7,0.8,4.5,2.8c0.4,0.9,0.7,0.4,1.1,0.1c2.7-2.2,5.8-3.6,9.3-4.2c7.2-1.2,13.6,0.3,19.1,5.3
		c0.1,0.1,0.3,0.2,0.5,0.4c0.1-1.3,0.4-2.4,1.3-3.2c0.9-0.9,1.8-1.3,3.1-1.3c6.1,0,12.2,0,18.4,0c2.5,0,4.3,1.8,4.2,4.2
		c-0.1,5.1-0.3,10.1-0.5,15.2c-0.2,3.1-0.3,6.1-0.4,9.2c0,1.2-0.1,2.4-0.2,3.6c-0.1,0.8,0.3,1.1,1,1c0.8-0.1,1.6-0.2,2.4-0.3
		c0.9-0.1,1.5-0.5,1.7-1.6c2.2-9.1,4.1-18.2,5.6-27.5c0.4-2.3,2.2-3.8,4.5-3.8c5.2,0,10.3,0,15.5,0c2.2,0,4.1,1.6,4.5,3.7
		c2,10.1,4.2,20.2,6.6,30.2c0.8,3.2,1.5,6.5,2.3,9.8c0.7,2.8-0.7,5-3.6,5.3c-4.9,0.5-9.7,0.1-14.6,0.2c-0.9,0-1.8-0.2-2.5-0.8
		c-0.9-0.9-1.7-0.4-2.4,0.3c-1,1-2.1,1.5-3.6,1.4c-0.3,0-0.6,0-0.8-0.1c-1.3-1.1-2.8-0.6-4.3-0.6c-2.4,0-4.9-0.2-7.3-0.1
		c-3.6,0.1-7.2,0.1-10.8,0.1c-4.3,0.1-8.6,0-12.8,0c-2,0-3.8-0.5-4.9-2.4c-0.6-1-0.5-2.2-0.5-3.3c0-0.7,0.2-1.4-0.4-2.1
		c-1,1.1-1.8,2.2-2.7,3.2c-4.5,4.5-9.9,6.4-16.1,5.8c-7.6-0.7-12.9-4.9-16.5-11.4c-2.3-4.1-3.4-8.5-3.6-13.1c0-0.5-0.1-1-0.6-1
		c-0.5,0-0.5,0.5-0.6,0.9c-0.3,2.1-0.4,4.2-0.5,6.3c-0.2,4.3-0.4,8.7-0.7,13c-0.1,2.2-2.1,3.9-4.3,3.9c-4.3,0-8.6,0-13,0
		c-2,0-3.8-1.6-4.1-3.6c-0.4-2.4-0.2-4.8-0.4-7.2c-0.3-4-0.4-8-0.6-11.9c0-0.5,0.2-1.3-0.7-1.4c-2.1-0.1-2.8,0.2-2.9,1.5
		c-0.1,2.1-0.1,4.1-0.2,6.2c-0.2,3.8-0.3,7.7-0.3,11.5c0,2.6-2.1,5.2-5,5c-4.7-0.2-9.4-0.1-14-0.1c-0.7,0-1.5,0-2-0.4
		c-1-0.9-1.8-0.6-2.6,0.1c-0.5,0.4-1.1,0.3-1.6,0.3c-3.1,0-6.2-0.1-9.2,0c-2,0.1-3.3-0.9-4.3-2.5c-0.1-0.2-0.2-0.5-0.5-0.5
		c-0.7,0.9-1.2,1.8-2,2.6c-2.2,2.4-4.8,2.2-6.7-0.4c-0.7-1-1.5-1.9-2.3-3c-0.3,0.7-0.5,1.4-0.9,1.9c-0.8,1.2-1.9,1.8-3.4,1.8
		c-9,0-18,0-27,0c-0.8,0-1.5-0.1-2-0.6c-1-0.9-1.7-0.6-2.5,0.2c-1,1-2.2,1.5-3.7,1.3c-0.4,0-0.9-0.1-1.1-0.3c-0.9-1-1.9-0.6-3-0.6
		c-2.4,0-4.9,0-7.3,0c-3,0-4.7-2.2-4-5.1c1.5-6.2,3-12.4,4.5-18.6c1.7-7.1,3.1-14.3,4.2-21.5c0.3-2,2.3-3.7,4.3-3.7
		c5,0,9.9,0.2,14.9-0.1c3.1-0.1,5.3,2,5.6,5c0.1,0.6,0.2,1.3,0.3,1.9c0.4,1.8,0.8,3.6,1.2,5.5C44.8,69.8,44.8,69.8,44.9,69.8z
		 M70.5,75.2c-2.6-4-4.6-8.1-6.3-12.3c-0.3-0.8-0.7-1.1-1.6-1.1c-4,0-7.9,0-11.9,0c-2.2,0-2.2,0-2,2.3c0.6,7.2,1.1,14.3,1.3,21.5
		c0.2,5.3,0.4,10.5,0.5,15.8c0,0.8,0.3,1,1.1,1c2.6,0,5.1,0,7.7,0c0.7,0,0.9-0.2,0.9-0.9c0-1.9,0.1-3.8,0.1-5.6c0-1.8,0-3.6,0-5.5
		c0.5,0.3,0.8,0.6,1.1,0.9c2.8,3.7,5.6,7.3,8.3,11c0.6,0.8,0.8,0.9,1.5,0c2.5-3.7,5.1-7.4,7.7-11.1c0.2-0.3,0.3-0.7,0.7-0.7
		c0.2,0.3,0.1,0.5,0.1,0.8c0.1,3.3,0.2,6.6,0.2,9.9c0,0.9,0.4,1.1,1.2,1.1c2.4,0,4.9-0.1,7.3,0c1,0,1.2-0.3,1.2-1.2
		c0.1-5.5,0.2-10.9,0.4-16.4c0.3-7.3,0.7-14.7,1.1-22c0-0.8-0.2-1-1-1c-3.3,0-6.6,0.2-10,0c-2.2-0.2-3.3,0.6-4.1,2.7
		C74.8,68.1,72.6,71.6,70.5,75.2z M148,81.3c0,4.8,0.9,9.4,3.4,13.7c4.1,7.1,11,10.2,18.5,8.3c4.5-1.2,7.7-4.1,10-8
		c4.1-7,4.6-14.5,2.5-22.1c-2.1-7.3-6.9-11.9-14.6-12.7c-6.7-0.7-13,1.7-16.8,8.1C148.7,72.4,148,76.8,148,81.3z M32.3,98.9
		c0.2,0.8,0.5,1.5,0.6,2.2c0.2,0.9,0.6,1.3,1.6,1.3c3.9-0.1,7.8,0,11.6,0c1.6,0,1.6,0,1.2-1.6c-3.1-12.6-6.1-25.3-8.5-38.1
		c-0.1-0.7-0.4-1-1.2-1c-4.6,0-9.3,0-13.9,0c-0.8,0-1.1,0.3-1.2,1c-1,6.2-2.1,12.4-3.6,18.6c-1.5,6.6-3.2,13.2-4.8,19.8
		c-0.3,1.1,0,1.3,1,1.3c1.8-0.1,3.7,0,5.5,0c0.7,0,1-0.2,1.1-0.9c0.3-1.3,0.6-2.6,1.2-4c0.8,1.7,1.6,3.2,2.2,4.7
		c0.3,0.8,0.6,0.9,1.2,0.3C28.3,101,30.1,99.8,32.3,98.9z M231.5,98.9c0.2,0.9,0.5,1.7,0.7,2.5c0.2,0.8,0.5,1,1.3,1
		c4,0,8.1-0.1,12.1,0c1.2,0,1.3-0.4,1-1.4c-3.1-12.7-6.1-25.5-8.6-38.3c-0.1-0.7-0.4-1-1.2-1c-4.6,0-9.3,0-13.9,0
		c-0.8,0-1.1,0.3-1.2,1.1c-0.9,5.8-2,11.6-3.3,17.3c-1.6,7.1-3.4,14.2-5.1,21.3c-0.2,0.8-0.1,1,0.8,1c2-0.1,3.9,0,5.9,0
		c0.6,0,0.9-0.2,1.1-0.8c0.3-1.3,0.7-2.6,1.2-4.2c1,2.1,1.9,3.9,2.8,5.7C227,101.4,229,100,231.5,98.9z M130.7,61.8
		c-5.1,0-10.2,0-15.3,0c-0.9,0-1.2,0.2-1.1,1.1c0.3,4.9,0.5,9.7,0.6,14.6c0,0.8,0.3,1,1.1,0.9c2-0.3,4-0.4,6.1-0.4
		c0.6,0,0.8,0.1,0.9,0.8c0.2,3.5,0.5,7,0.7,10.5c0.2,4,0.4,8.1,0.5,12.1c0,0.8,0.2,1.1,1.1,1.1c3.6,0,7.3,0,10.9,0
		c0.6,0,0.9-0.1,0.9-0.8c0.1-2.6,0.3-5.2,0.4-7.8c0.3-5,0.6-10,0.9-15.1c0-0.6,0.2-0.8,0.9-0.8c2.1,0,4.2,0.1,6.2,0.4
		c0.6,0.1,0.9,0,0.9-0.7c0.2-4.9,0.4-9.8,0.7-14.7c0.1-1.1-0.3-1.2-1.3-1.2C140.8,61.8,135.8,61.8,130.7,61.8z M212.9,94.3
		c-3.3,0.6-6.4,0.9-9.5,1c-0.8,0-1-0.2-1-1c0.3-7,0.6-14,1-20.9c0.2-3.5,0.3-7,0.5-10.5c0-0.5,0.2-1.1-0.7-1.1c-5.6,0-11.2,0-16.8,0
		c-0.6,0-0.8,0.2-0.7,0.8c0.1,1.5,0.2,2.9,0.3,4.4c0.9,11.4,1.2,22.9,1.6,34.3c0,0.9,0.3,1.1,1.2,1.1c4.1,0,8.2,0,12.4,0
		c3.2,0,6.3,0,9.5,0c0.5,0,1,0.1,1-0.7C211.6,99.3,212.3,96.9,212.9,94.3z M103.1,61.8c-2.6,0-5.2,0.1-7.8,0c-1.2,0-1.4,0.4-1.4,1.5
		c0.4,7.9,0.8,15.7,1.1,23.6c0.2,4.7,0.4,9.5,0.6,14.2c0,0.7-0.1,1.4,1.1,1.4c4.3-0.1,8.6,0,12.8,0c0.9,0,1.1-0.3,1.1-1.1
		c0-1.8,0.1-3.5,0.2-5.3c0.3-11.1,0.9-22.1,1.5-33.2c0.1-1-0.3-1.1-1.1-1.1C108.4,61.8,105.8,61.8,103.1,61.8z"/>
	<path class="st2" d="M70.5,75.2c2.1-3.6,4.3-7,5.7-10.8c0.8-2.1,1.8-2.8,4.1-2.7c3.3,0.2,6.6,0.1,10,0c0.8,0,1,0.2,1,1
		c-0.4,7.3-0.8,14.7-1.1,22c-0.2,5.5-0.3,10.9-0.4,16.4c0,0.9-0.2,1.3-1.2,1.2c-2.4-0.1-4.9-0.1-7.3,0c-0.8,0-1.2-0.2-1.2-1.1
		c0-3.3-0.1-6.6-0.2-9.9c0-0.3,0.1-0.6-0.1-0.8c-0.4,0.1-0.5,0.5-0.7,0.7c-2.6,3.7-5.2,7.4-7.7,11.1c-0.6,0.9-0.9,0.8-1.5,0
		c-2.7-3.7-5.5-7.3-8.3-11c-0.3-0.3-0.5-0.7-1.1-0.9c0,1.8,0,3.6,0,5.5c0,1.9-0.1,3.8-0.1,5.6c0,0.7-0.2,0.9-0.9,0.9
		c-2.6,0-5.1,0-7.7,0c-0.8,0-1-0.2-1.1-1c-0.1-5.3-0.3-10.5-0.5-15.8c-0.3-7.2-0.7-14.4-1.3-21.5c-0.2-2.3-0.2-2.3,2-2.3
		c4,0,7.9,0,11.9,0c0.9,0,1.3,0.3,1.6,1.1C65.9,67,67.9,71.1,70.5,75.2z"/>
	<path class="st5" d="M148,81.2c0-4.5,0.7-8.8,3-12.8c3.8-6.4,10-8.8,16.8-8.1c7.8,0.8,12.6,5.4,14.6,12.7
		c2.2,7.6,1.6,15.1-2.5,22.1c-2.3,3.9-5.5,6.9-10,8c-7.5,1.9-14.4-1.2-18.5-8.3C148.9,90.7,148,86.1,148,81.2z M170.9,85.4
		c0-1.2-0.2-2.6-0.7-3.9c-0.7-1.9-2.2-2.9-4.2-3c-2,0-3.6,0.9-4.2,2.9c-1.3,3.9-1,7.7,1.3,11.2c1.5,2.3,3.9,2.3,5.5,0.1
		C170.2,90.6,170.9,88.2,170.9,85.4z"/>
	<path class="st2" d="M32.3,98.9c-2.1,0.9-4,2.1-5.7,3.6c-0.7,0.6-0.9,0.5-1.2-0.3c-0.7-1.5-1.4-3-2.2-4.7c-0.6,1.4-0.9,2.7-1.2,4
		c-0.2,0.7-0.5,0.9-1.1,0.9c-1.8,0-3.7-0.1-5.5,0c-1.1,0-1.3-0.2-1-1.3c1.7-6.6,3.3-13.2,4.8-19.8c1.4-6.1,2.6-12.3,3.6-18.6
		c0.1-0.8,0.4-1.1,1.2-1c4.6,0,9.3,0,13.9,0c0.8,0,1,0.3,1.2,1c2.4,12.8,5.4,25.4,8.5,38.1c0.4,1.6,0.4,1.6-1.2,1.6
		c-3.9,0-7.8,0-11.6,0c-1,0-1.4-0.3-1.6-1.3C32.8,100.4,32.5,99.7,32.3,98.9z M23.8,94.8c1.6,0,3.1-0.2,4.6-0.5
		c2.8-0.5,2.8-0.5,1.8-3.2c-0.8-2.3-1.7-4.5-2.9-6.8C26,87.9,24.7,91.2,23.8,94.8z"/>
	<path class="st2" d="M231.5,98.9c-2.5,1.1-4.5,2.5-6.5,4.2c-0.9-1.9-1.8-3.7-2.8-5.7c-0.5,1.6-0.9,2.9-1.2,4.2
		c-0.2,0.6-0.4,0.8-1.1,0.8c-2,0-3.9,0-5.9,0c-0.8,0-1-0.2-0.8-1c1.7-7.1,3.5-14.2,5.1-21.3c1.3-5.7,2.4-11.5,3.3-17.3
		c0.1-0.8,0.4-1.1,1.2-1.1c4.6,0,9.3,0,13.9,0c0.8,0,1,0.3,1.2,1c2.5,12.9,5.5,25.6,8.6,38.3c0.2,1,0.2,1.4-1,1.4
		c-4-0.1-8.1,0-12.1,0c-0.8,0-1.2-0.2-1.3-1C232,100.6,231.7,99.8,231.5,98.9z M223,94.8c2.3-0.1,4.4-0.4,6.6-0.9
		c0.7-0.2,0.6-0.5,0.4-1c-0.6-1.6-1.2-3.3-1.8-4.9c-0.5-1.1-1-2.3-1.6-3.6C225.1,87.9,223.9,91.2,223,94.8z"/>
	<path class="st2" d="M130.7,61.8c5,0,10.1,0,15.1,0c1,0,1.3,0.2,1.3,1.2c-0.3,4.9-0.5,9.8-0.7,14.7c0,0.7-0.3,0.8-0.9,0.7
		c-2.1-0.3-4.1-0.4-6.2-0.4c-0.6,0-0.8,0.2-0.9,0.8c-0.3,5-0.6,10-0.9,15.1c-0.2,2.6-0.3,5.2-0.4,7.8c0,0.7-0.3,0.9-0.9,0.8
		c-3.6,0-7.3,0-10.9,0c-0.9,0-1.1-0.3-1.1-1.1c-0.1-4-0.3-8.1-0.5-12.1c-0.2-3.5-0.5-7-0.7-10.5c0-0.7-0.3-0.8-0.9-0.8
		c-2,0-4.1,0.1-6.1,0.4c-0.8,0.1-1-0.1-1.1-0.9c-0.2-4.9-0.4-9.7-0.6-14.6c0-0.9,0.3-1.2,1.1-1.1C120.5,61.8,125.6,61.8,130.7,61.8z
		"/>
	<path class="st2" d="M212.9,94.3c-0.6,2.6-1.3,4.9-1.5,7.4c-0.1,0.7-0.6,0.7-1,0.7c-3.2,0-6.3,0-9.5,0c-4.1,0-8.2,0-12.4,0
		c-0.9,0-1.1-0.2-1.2-1.1c-0.4-11.5-0.6-22.9-1.6-34.3c-0.1-1.5-0.2-2.9-0.3-4.4c0-0.6,0.2-0.8,0.7-0.8c5.6,0,11.2,0,16.8,0
		c0.9,0,0.8,0.6,0.7,1.1c-0.1,3.5-0.3,7-0.5,10.5c-0.3,7-0.6,14-1,20.9c0,0.8,0.2,1,1,1C206.5,95.2,209.6,95,212.9,94.3z"/>
	<path class="st2" d="M103.1,61.8c2.7,0,5.4,0,8,0c0.8,0,1.2,0.1,1.1,1.1c-0.6,11-1.2,22.1-1.5,33.2c0,1.8-0.2,3.5-0.2,5.3
		c0,0.8-0.2,1.1-1.1,1.1c-4.3,0-8.6-0.1-12.8,0c-1.1,0-1.1-0.7-1.1-1.4c-0.2-4.7-0.4-9.5-0.6-14.2c-0.4-7.9-0.7-15.7-1.1-23.6
		c-0.1-1.1,0.2-1.5,1.4-1.5C97.9,61.8,100.5,61.8,103.1,61.8z"/>
	<path class="st4" d="M170.9,85.4c0,2.9-0.7,5.3-2.3,7.4c-1.7,2.2-4,2.2-5.5-0.1c-2.3-3.5-2.6-7.3-1.3-11.2c0.7-2,2.2-2.9,4.2-2.9
		c2,0,3.5,1,4.2,3C170.7,82.8,170.9,84.2,170.9,85.4z M167.3,85.5c0-0.9,0.1-1.7-0.2-2.6c-0.2-0.6-0.5-0.9-1.1-0.9
		c-0.7,0-1,0.3-1.1,0.9c-0.4,2.3-0.5,4.7,0.5,6.9c0.3,0.7,0.6,0.7,0.9,0C167.1,88.5,167.4,87.1,167.3,85.5z"/>
	<path class="st4" d="M23.8,94.8c0.9-3.6,2.1-6.9,3.6-10.4c1.2,2.3,2.1,4.5,2.9,6.8c0.9,2.7,0.9,2.7-1.8,3.2
		C26.9,94.6,25.4,94.8,23.8,94.8z"/>
	<path class="st4" d="M223,94.8c0.9-3.6,2.1-6.9,3.6-10.5c0.6,1.4,1.2,2.5,1.6,3.6c0.6,1.6,1.2,3.3,1.8,4.9c0.2,0.5,0.3,0.9-0.4,1
		C227.5,94.5,225.3,94.7,223,94.8z"/>
	<path class="st3" d="M167.3,85.5c0.1,1.6-0.2,3-1,4.4c-0.4,0.6-0.6,0.6-0.9,0c-1-2.2-1-4.6-0.5-6.9c0.1-0.6,0.4-0.9,1.1-0.9
		c0.6,0,0.9,0.3,1.1,0.9C167.4,83.8,167.3,84.6,167.3,85.5z"/>
</g>
</svg>
