<svg id="Layer_1" xmlns="http://www.w3.org/2000/svg" viewBox="0 0 283.7 117.6"><style>.st1{fill:#e24f37}.st2{fill:#1a9149}.st3{fill:#ed8e39}.st4{fill:#f2e629}</style><path d="M.2 100.3v-99C.2.3.5.2 1.4.2h233.3c-.9.8-1.1 1.8-1.2 2.9-.2 2.8.1 5.5.4 8.2.4 3.7.8 7.3 1.1 11 0 .5.1 1-.5 1.2-.6.2-.8-.4-1-.8-1.7-2.7-3-5.5-4.4-8.3-.8-1.6-1.7-3.2-3.1-4.6-1.2-1.2-2.4-1.5-3.4-1-1.1.6-1.4 1.6-1 3.4l.3 1.2c1.4 3.3 2.7 6.8 4.8 9.7.7.9 1.3 1.8 1.6 2.9.4 1.5-.7 2.7-2.2 2.4-.9-.2-1.8-.7-2.5-1.3-1.4-1-2.7-2-4.1-2.9-.6-.4-1.3-.8-2-.9-1-.2-1.8.2-2.4 1-.5.8-.1 1.5.3 2.1 1 1.5 2.4 2.7 3.9 3.7 1.7 1.2 3.5 2.4 5.2 3.7.4.3.8.6.9 1.2.8 3.3 2.7 6 4.7 8.7.3.4.7.7 1.3.7h6.8c.1 0 .2 0 .2.1 6.8.6 12.2 3.3 15.5 9.5.3.5.6.5 1.1.4 3-.6 5.9-1.6 8.5-3.2 1.4-.9 2.9-1.1 4.4-.9 1 .1 2 .3 3 .3 2.4.1 4.8.6 7.2.2 1.3-.2 1.7-.9 1.6-2.2-.1-1.1-.8-1.6-1.7-1.9-1.5-.5-3-.6-4.6-.8-1.5-.1-3.1-.1-4.6-.6-.8-.3-1.4-.7-1.6-1.6-.1-.9.5-1.4 1.2-1.7.7-.4 1.5-.7 2.3-1 3.6-1.3 7-3 10.5-4.6 2.1-1 2.7-2.2 2.2-3.6-.4-1.2-1.8-1.6-3.9-1.2-1.7.3-3.3 1-4.9 1.6-2.7 1.2-5.3 2.5-8 3.5-.4.2-.9.5-1.3 0-.3-.5 0-.9.3-1.3.1-.2.2-.3.4-.5 3-4 6.2-7.8 9.4-11.7 1.4-1.7 2.8-3.5 3.7-5.6.3-.8.6-1.6-.1-2.4-.8-.8-1.7-1.1-2.8-.8-.7.2-1.3.6-1.9 1-.9.7-1.7 1.5-2.5 2.4-2.6 3.1-5 6.3-7.7 9.3-.9-1-2.1-1.3-3.3-1.1.7-2.7 1.5-5.4 2.2-8.2.6-2.1 1.2-4.2 1.2-6.4 0-.8-.1-1.7-1.1-2.1-1-.4-2-.5-2.9.3-.6.6-1.1 1.3-1.5 2-1.1 2.3-2.1 4.6-2.9 7.1-1.1 3.4-2.1 6.8-4 9.8-.9 1.4-2 2.2-3.7 2-.2-.4 0-.7 0-1.1.6-5.1 1.8-10 3.6-14.8 1-2.5 1.9-5.1 2.1-7.8.1-1.1-.2-2.1-1.3-2.6-1.2-.5-2.1-.3-3.1.9-.7.8-1.2 1.6-1.6 2.5-2.1 4.3-3.4 8.9-5 13.4-.4-.3-.9-.7-1.3-1-.1-5-1.1-9.9-1.9-14.8-.3-2-.8-3.9-2.9-4.9h46.1c.8 0 1 .1 1 1v115.4c0 .9-.2 1-1.1 1H1.4c-.9 0-1.1-.2-1.1-1.1.1-3.9 0-7.8 0-11.6.1.1.2.2.2.4 1.3 5.8 5 9.3 10.8 10.5 2.7.6 5.5.2 8.3.3.7 0 1.4.1 2.1.3 2.8.9 5.7.8 8.5-.2.5-.2.9-.4 1.5-.3 2 .3 4.1.1 6.1.1 4.2 0 8.5.1 12.7 0 4.4-.1 8.8.4 13.2-.4.5-.1.8.1 1.2.3 2.9 1.3 5.9 1.9 8.9.9 2.3-.8 4.6-.9 7-.8 5.3.3 10.5-.2 15.8 0 4.6.2 9.1 0 13.7 0 2.3 0 4.5-.4 6.6-1.5.5-.3.9-.3 1.4 0 1.6.9 3.3 1.4 5.1 1.5 4.3.1 8.6 0 13 .1 4.2.1 7.7-1.4 10.6-4.5.5-.5.7-.5 1.3-.1 9.9 7 20.3 7.7 31.3 2.7.5-.2.8-.3 1.3 0 2.4 1.4 5 1.9 7.8 1.9h30.4c.6 0 1.3.1 1.9.3 2.9 1 5.8.9 8.7-.1.4-.1.8-.3 1.3-.3 5.4.3 10.9.1 16.3.1.9 0 1.8-.1 2.7-.3 8.1-1.6 12.5-9 10.4-17.3-3.2-12.9-6.2-25.9-8.8-38.9-1.3-6.7-7.1-11.5-14-11.5h-14.8c-3.3 0-6.3.9-8.9 3-.5.4-.8.5-1.4 0-2.5-2.1-5.5-3-8.8-3h-17.8c-1.9 0-3.7.3-5.5 1.1-.6.3-1.1.3-1.7 0-8.4-3.5-16.8-3.5-25.2-.2-.5.2-1 .2-1.5 0-1.8-.7-3.7-.9-5.6-.9H78.5c-2.5 0-4.9.5-7.1 1.7-.5.3-.9.3-1.4 0-2.2-1.2-4.5-1.7-7-1.7H49.9c-1.9 0-3.7.2-5.6.7-1.9.5-3.7-.9-5.6-.7H23c-6.5 0-12.4 4.9-13.6 11.2-1.7 9.6-3.6 19.2-6 28.7-1.1 4.1-2 8.2-3.2 12.2z" fill="#fefefd"/><path class="st1" d="M.2 100.3c1.2-4 2.1-8.2 3.1-12.3 2.4-9.5 4.3-19.1 6-28.7 1.1-6.4 7.1-11.2 13.6-11.2h15.7c1.9-.2 3.7 1.2 5.6.7 1.8-.5 3.7-.7 5.6-.7h13.1c2.5 0 4.8.5 7 1.7.5.3.9.3 1.4 0 2.2-1.2 4.6-1.7 7.1-1.7h67.9c1.9 0 3.8.2 5.6.9.5.2 1 .2 1.5 0 8.4-3.3 16.8-3.3 25.2.2.6.3 1.1.3 1.7 0 1.7-.8 3.6-1.1 5.5-1.1h17.8c3.3 0 6.2.9 8.8 3 .6.5.9.4 1.4 0 2.6-2.1 5.6-3 8.9-3h14.8c6.9 0 12.6 4.8 14 11.5 2.6 13 5.6 26 8.8 38.9 2.1 8.3-2.4 15.6-10.4 17.3-.9.2-1.8.3-2.7.3-5.4-.1-10.9.2-16.3-.1-.5 0-.9.1-1.3.3-2.9 1-5.8 1.1-8.7.1-.6-.2-1.2-.3-1.9-.3h-30.4c-2.8 0-5.4-.5-7.8-1.9-.5-.3-.8-.2-1.3 0-10.9 5.1-21.4 4.3-31.3-2.7-.5-.4-.8-.4-1.3.1-2.9 3-6.4 4.5-10.6 4.5-4.3-.1-8.6 0-13-.1-1.8 0-3.5-.6-5.1-1.5-.5-.3-.9-.3-1.4 0-2 1.1-4.3 1.5-6.6 1.5-4.6 0-9.1.2-13.7 0-5.3-.2-10.5.3-15.8 0-2.4-.1-4.6 0-7 .8-3 1-6 .5-8.9-.9-.4-.2-.7-.4-1.2-.3-4.4.9-8.8.3-13.2.4-4.2.1-8.5 0-12.7 0-2 0-4.1.1-6.1-.1-.6-.1-1 .1-1.5.3-2.8 1-5.6 1.1-8.5.2-.7-.2-1.4-.3-2.1-.3-2.8 0-5.5.3-8.3-.3-5.8-1.2-9.5-4.7-10.8-10.5 0-.1-.1-.3-.2-.4v-4.6zm145.8 2.5c1.7 1.8 3.2 3.6 5.1 4.9 5.8 4.3 12.2 5.6 19.2 4.5 3.4-.5 6.5-1.8 9.3-3.8.6-.4 1-.4 1.6.1 1.8 1.8 3.9 2.7 6.6 2.7 10.7-.1 21.4 0 32 0 .5 0 1 0 1.5.2 2 1 4.1 1.1 6 .4 1.6-.6 3.2-.7 4.9-.7 5.1.2 10.2.1 15.4 0 .4 0 .9 0 1.3-.1 5.3-1.2 7.9-5.6 6.7-11-2-8.5-4.2-17-6-25.6-1-4.6-2-9.1-2.8-13.7-.8-4.7-5.3-8-9.2-7.8-5 .2-10.1.1-15.1 0-3.5-.1-5.9 1.6-7.9 4.2-1.2 1.6-1.3 3.6-1.8 5.4-.1-.3-.1-.6-.1-.9.3-4.3-4-8.8-8.8-8.7-6.2.2-12.5.1-18.7 0-1.7 0-3.2.6-4.6 1.5-.7.5-1.2.5-1.9.1-3.6-2.2-7.7-3.1-11.9-3.3-4.7-.2-9.3.7-13.5 3-.6.3-1 .3-1.6-.1-1.4-.9-2.9-1.3-4.7-1.3H77.4c-1.5 0-2.9.4-4.2 1.2-.7.4-1.4.9-2 1.4-.5.4-.8.4-1.4-.1-2-1.7-4.2-2.7-7-2.6-4.9.1-9.8 0-14.6 0-1.4 0-2.8.3-4 1.1-.6.4-1 .3-1.5 0-1.4-.9-3-1.1-4.7-1.1-5.1.1-10.2 0-15.4 0-4.1 0-8.2 3.5-8.8 7.6-1 7-2.4 14-4.1 20.9-1.3 6.8-2.9 13.2-4.4 19.6-1.3 5.2 2.7 10.3 8 10.3h6.2c1.1 0 2.2.1 3.3.5 1.6.7 3.4.8 5 .2 1.9-.8 3.7-.7 5.7-.7 8.8.1 17.5 0 26.3.1 1.4 0 2.8-.1 4.1-.8.5-.2.9-.2 1.3.1 3 2.3 6.4 2.6 9.7.6.9-.5 1.6-.8 2.6-.3.6.3 1.4.3 2.1.3 5.7.2 11.4-.2 17.2 0 4.6.1 9.1 0 13.7 0 2.4 0 4.5-.8 6.1-2.5.6-.6.9-.6 1.5 0 1.5 1.4 3.2 2.5 5.3 2.5 4.8.1 9.5.1 14.3 0 2.4 0 4.3-1.2 5.9-3 1.3-1.5 2-3.3 2.4-5.3z"/><path class="st2" d="M236.6.2c2.1 1 2.5 2.9 2.9 4.9.8 4.9 1.8 9.8 1.9 14.8-2.8-.7-3.7 0-3.6 2.9 0 .4.1.9.2 1.3.5 2.9 1.3 5.8 2.3 8.5.8 2.2.6 4-.6 5.9-1 1.7-1.6 3.7-1.6 5.8h-6.8c-.6 0-1-.3-1.3-.7-2-2.6-3.9-5.4-4.7-8.7-.1-.6-.5-.9-.9-1.2-1.7-1.2-3.4-2.5-5.2-3.7-1.5-1-2.9-2.2-3.9-3.7-.4-.6-.8-1.3-.3-2.1.6-.8 1.4-1.2 2.4-1 .8.1 1.4.5 2 .9 1.4 1 2.7 2 4.1 2.9.8.6 1.6 1.1 2.5 1.3 1.5.4 2.7-.9 2.2-2.4-.3-1.1-1-2-1.6-2.9-2.2-3-3.4-6.4-4.8-9.7-.2-.4-.2-.8-.3-1.2-.4-1.7 0-2.8 1-3.4 1.1-.5 2.2-.2 3.4 1 1.3 1.3 2.2 2.9 3.1 4.6 1.4 2.8 2.7 5.7 4.4 8.3.2.4.4 1 1 .8.6-.2.5-.8.5-1.2-.4-3.7-.7-7.3-1.1-11-.3-2.7-.6-5.5-.4-8.2.1-1.1.3-2.1 1.2-2.9.8.1 1.4.1 2 .1z"/><path class="st1" d="M238.1 44.3c0-2.1.6-4 1.6-5.8 1.2-1.9 1.4-3.7.6-5.9-1-2.8-1.8-5.6-2.3-8.5-.1-.4-.1-.9-.2-1.3-.1-2.9.8-3.6 3.6-2.9.4.3.9.7 1.3 1 1.1 1.8 1.6 3.8 1.8 5.9.2 2 2 3.7 3.5 3.6 1.7.2 2.8-.6 3.7-2 1.9-3.1 2.9-6.5 4-9.8.8-2.4 1.8-4.8 2.9-7.1.4-.8.8-1.5 1.5-2 .9-.8 1.9-.7 2.9-.3 1 .4 1.1 1.2 1.1 2.1 0 2.2-.6 4.3-1.2 6.4-.7 2.7-1.5 5.5-2.2 8.2-.4.8-.5 1.6-.5 2.4 0 1.2.6 1.6 1.7 1 .9-.5 1.7-1.3 2.2-2.3 2.7-3 5.2-6.2 7.7-9.3.7-.9 1.5-1.7 2.5-2.4.6-.4 1.2-.8 1.9-1 1.1-.3 2.1 0 2.8.8.7.7.4 1.6.1 2.4-.9 2.1-2.3 3.8-3.7 5.6-3.2 3.8-6.5 7.6-9.4 11.7-.1.2-.2.3-.4.5-.3.4-.6.8-.3 1.3.4.5.9.2 1.3 0 2.7-1 5.3-2.3 8-3.5 1.6-.7 3.2-1.3 4.9-1.6 2.1-.4 3.4 0 3.9 1.2.5 1.4-.1 2.6-2.2 3.6-3.5 1.6-6.9 3.4-10.5 4.6-.8.3-1.6.6-2.3 1-.7.4-1.3.8-1.2 1.7.1.9.8 1.4 1.6 1.6 1.5.5 3.1.5 4.6.6 1.6.1 3.1.2 4.6.8.9.3 1.6.8 1.7 1.9.1 1.3-.3 2-1.6 2.2-2.4.4-4.8 0-7.2-.2l-3-.3c-1.6-.2-3 0-4.4.9-2.6 1.6-5.5 2.6-8.5 3.2-.5.1-.8.2-1.1-.4-3.3-6.2-8.7-8.9-15.5-9.5-.1 0-.2-.1-.3-.1z"/><path class="st2" d="M248.1 30.4c-1.5.1-3.3-1.6-3.5-3.6-.2-2.1-.7-4.1-1.8-5.9 1.6-4.5 2.9-9.1 5-13.4.4-.9 1-1.8 1.6-2.5.9-1.1 1.9-1.4 3.1-.9 1.1.5 1.4 1.5 1.3 2.6-.2 2.7-1.1 5.3-2.1 7.8-1.9 4.8-3 9.7-3.6 14.8-.1.4-.2.8 0 1.1zM264 27c-.4 1-1.2 1.8-2.2 2.3-1.1.6-1.7.2-1.7-1 0-.8.1-1.7.5-2.4 1.4-.2 2.5.1 3.4 1.1z"/><path class="st3" d="M146 102.8c-.3 2.1-1 3.8-2.4 5.3-1.6 1.8-3.5 2.9-5.9 3-4.8.1-9.5.1-14.3 0-2.1 0-3.8-1-5.3-2.5-.6-.6-.9-.6-1.5 0-1.7 1.7-3.7 2.6-6.1 2.5-4.6 0-9.1.1-13.7 0-5.7-.2-11.4.2-17.2 0-.7 0-1.5 0-2.1-.3-1-.6-1.8-.3-2.6.3-3.3 2-6.7 1.7-9.7-.6-.4-.3-.8-.4-1.3-.1-1.3.6-2.6.8-4.1.8-8.8 0-17.5 0-26.3-.1-2 0-3.8-.1-5.7.7-1.6.7-3.4.5-5-.2-1.1-.4-2.1-.5-3.3-.5h-6.2c-5.3 0-9.3-5.1-8.1-10.4C6.8 94.4 8.4 88 9.9 81.6c1.6-6.9 3.1-13.9 4.1-20.9.6-4.1 4.7-7.6 8.8-7.6h15.4c1.7 0 3.3.2 4.7 1.1.5.3.9.3 1.5 0 1.2-.8 2.6-1.1 4-1.1 4.9 0 9.8.1 14.6 0 2.8-.1 5 1 7 2.6.6.5.9.5 1.4.1.6-.5 1.3-1 2-1.4 1.3-.8 2.6-1.2 4.2-1.2h69.6c1.7 0 3.2.4 4.7 1.3.6.4 1 .4 1.6.1 4.2-2.2 8.8-3.1 13.5-3 4.2.2 8.2 1.1 11.9 3.3.6.4 1.2.4 1.9-.1 1.3-1 2.9-1.5 4.6-1.5 6.2 0 12.5.1 18.7 0 4.7-.1 9.1 4.4 8.8 8.7 0 .3 0 .6.1.9.5-1.8.5-3.8 1.8-5.4 2-2.6 4.4-4.3 7.9-4.2 5 .1 10.1.2 15.1 0 3.9-.2 8.5 3.2 9.2 7.8.8 4.6 1.9 9.1 2.8 13.7 1.8 8.6 3.9 17.1 6 25.6 1.3 5.3-1.4 9.8-6.7 11-.4.1-.9.1-1.3.1-5.1 0-10.2.1-15.4 0-1.7-.1-3.2 0-4.9.7-2 .7-4.1.6-6-.4-.5-.3-1-.2-1.5-.2h-32c-2.6 0-4.8-.8-6.6-2.7-.5-.5-1-.6-1.6-.1-2.8 2-5.9 3.3-9.3 3.8-7 1.1-13.5-.2-19.2-4.5-2.1-1.8-3.6-3.5-5.3-5.3zm-101.1-33h-.2c-.4-1.8-.8-3.6-1.2-5.5-.1-.6-.3-1.3-.3-1.9-.3-3-2.5-5.1-5.6-5-4.9.2-9.9.1-14.9.1-2 0-3.9 1.7-4.3 3.7-1.2 7.2-2.5 14.4-4.2 21.5l-4.5 18.6c-.7 2.9 1 5.1 4 5.1H21c1 0 2.1-.3 3 .6.2.2.7.2 1.1.3 1.4.2 2.7-.3 3.7-1.3.8-.8 1.5-1.1 2.5-.2.5.5 1.3.6 2 .6h27c1.5 0 2.6-.7 3.4-1.8.4-.5.6-1.2.9-1.9.8 1 1.5 2 2.3 3 1.9 2.6 4.5 2.8 6.7.4.7-.8 1.3-1.8 2-2.6.3.1.4.3.5.5 1 1.6 2.2 2.6 4.3 2.5 3.1-.1 6.2 0 9.2 0 .6 0 1.2.1 1.6-.3.9-.7 1.7-.9 2.6-.1.5.4 1.3.4 2 .4 4.7 0 9.4-.2 14 .1 3 .1 5-2.4 5-5 0-3.8.1-7.7.3-11.5.1-2.1.1-4.1.2-6.2.1-1.2.7-1.6 2.9-1.5.9 0 .7.9.7 1.4.2 4 .2 8 .6 11.9.2 2.4 0 4.8.4 7.2.3 2 2.1 3.6 4.1 3.6h13c2.2 0 4.1-1.8 4.3-3.9.3-4.3.5-8.7.7-13 .1-2.1.2-4.2.5-6.3 0-.4 0-.9.6-.9s.6.5.6 1c.2 4.6 1.3 9.1 3.6 13.1 3.6 6.5 8.9 10.7 16.5 11.4 6.2.6 11.6-1.3 16.1-5.8 1-1 1.8-2.1 2.7-3.2.5.7.3 1.5.4 2.1.1 1.1-.1 2.2.5 3.3 1.1 1.9 2.9 2.4 4.9 2.4 4.3 0 8.6.1 12.8 0 3.6 0 7.2 0 10.8-.1 2.4-.1 4.9.1 7.3.1 1.5 0 3-.5 4.3.6.2.2.5.1.8.1 1.4.1 2.6-.4 3.6-1.4.7-.7 1.4-1.1 2.4-.3.7.6 1.6.9 2.5.8 4.9-.1 9.8.3 14.6-.2 2.9-.3 4.3-2.4 3.6-5.3-.8-3.3-1.5-6.5-2.3-9.8-2.5-10-4.7-20.1-6.6-30.2-.4-2.1-2.3-3.7-4.5-3.7h-15.5c-2.3 0-4.1 1.6-4.5 3.8-1.6 9.2-3.4 18.4-5.6 27.5-.3 1.1-.8 1.5-1.7 1.6l-2.4.3c-.8.1-1.1-.1-1-1 .1-1.2.2-2.4.2-3.6.1-3.1.3-6.1.4-9.2.3-5.1.4-10.1.5-15.2.1-2.4-1.8-4.2-4.2-4.2h-18.4c-1.3 0-2.2.4-3.1 1.3-.9.9-1.2 1.9-1.3 3.2-.3-.2-.4-.3-.5-.4-5.4-5.1-11.9-6.6-19.1-5.3-3.5.6-6.5 2-9.3 4.2-.4.3-.8.8-1.1-.1-.8-2-2.3-2.9-4.5-2.8H78.3c-2.5 0-4.3 1-5.3 3.3-.6 1.4-1.2 2.8-1.9 4.1-.2.3-.2.9-.7.8-.4 0-.5-.5-.6-.8-.7-1.5-1.2-3-2-4.5-.9-1.9-2.4-3-4.6-3-4.8 0-9.5.1-14.3 0-2.8-.1-4.9 1.9-4.7 4.8.4 2.7.5 5.2.7 7.7z"/><path class="st4" d="M44.9 69.8c-.2-2.5-.3-5-.5-7.5-.3-2.8 1.9-4.9 4.7-4.8 4.8.2 9.5.1 14.3 0 2.2 0 3.7 1.1 4.6 3 .7 1.5 1.3 3 2 4.5.1.3.2.8.6.8.5 0 .6-.5.7-.8.6-1.4 1.3-2.8 1.9-4.1 1-2.3 2.7-3.3 5.3-3.3h68.3c2.2 0 3.7.8 4.5 2.8.4.9.7.4 1.1.1 2.7-2.2 5.8-3.6 9.3-4.2 7.2-1.2 13.6.3 19.1 5.3.1.1.3.2.5.4.1-1.3.4-2.4 1.3-3.2.9-.9 1.8-1.3 3.1-1.3h18.4c2.5 0 4.3 1.8 4.2 4.2-.1 5.1-.3 10.1-.5 15.2-.2 3.1-.3 6.1-.4 9.2 0 1.2-.1 2.4-.2 3.6-.1.8.3 1.1 1 1l2.4-.3c.9-.1 1.5-.5 1.7-1.6 2.2-9.1 4.1-18.2 5.6-27.5.4-2.3 2.2-3.8 4.5-3.8h15.5c2.2 0 4.1 1.6 4.5 3.7 2 10.1 4.2 20.2 6.6 30.2.8 3.2 1.5 6.5 2.3 9.8.7 2.8-.7 5-3.6 5.3-4.9.5-9.7.1-14.6.2-.9 0-1.8-.2-2.5-.8-.9-.9-1.7-.4-2.4.3-1 1-2.1 1.5-3.6 1.4-.3 0-.6 0-.8-.1-1.3-1.1-2.8-.6-4.3-.6-2.4 0-4.9-.2-7.3-.1-3.6.1-7.2.1-10.8.1-4.3.1-8.6 0-12.8 0-2 0-3.8-.5-4.9-2.4-.6-1-.5-2.2-.5-3.3 0-.7.2-1.4-.4-2.1-1 1.1-1.8 2.2-2.7 3.2-4.5 4.5-9.9 6.4-16.1 5.8-7.6-.7-12.9-4.9-16.5-11.4-2.3-4.1-3.4-8.5-3.6-13.1 0-.5-.1-1-.6-1s-.5.5-.6.9c-.3 2.1-.4 4.2-.5 6.3-.2 4.3-.4 8.7-.7 13-.1 2.2-2.1 3.9-4.3 3.9h-13c-2 0-3.8-1.6-4.1-3.6-.4-2.4-.2-4.8-.4-7.2-.3-4-.4-8-.6-11.9 0-.5.2-1.3-.7-1.4-2.1-.1-2.8.2-2.9 1.5-.1 2.1-.1 4.1-.2 6.2-.2 3.8-.3 7.7-.3 11.5 0 2.6-2.1 5.2-5 5-4.7-.2-9.4-.1-14-.1-.7 0-1.5 0-2-.4-1-.9-1.8-.6-2.6.1-.5.4-1.1.3-1.6.3-3.1 0-6.2-.1-9.2 0-2 .1-3.3-.9-4.3-2.5-.1-.2-.2-.5-.5-.5-.7.9-1.2 1.8-2 2.6-2.2 2.4-4.8 2.2-6.7-.4-.7-1-1.5-1.9-2.3-3-.3.7-.5 1.4-.9 1.9-.8 1.2-1.9 1.8-3.4 1.8h-27c-.8 0-1.5-.1-2-.6-1-.9-1.7-.6-2.5.2-1 1-2.2 1.5-3.7 1.3-.4 0-.9-.1-1.1-.3-.9-1-1.9-.6-3-.6h-7.3c-3 0-4.7-2.2-4-5.1l4.5-18.6c1.7-7.1 3.1-14.3 4.2-21.5.3-2 2.3-3.7 4.3-3.7 5 0 9.9.2 14.9-.1 3.1-.1 5.3 2 5.6 5 .1.6.2 1.3.3 1.9.4 1.8.8 3.6 1.2 5.5-.1-.2-.1-.2 0-.2zm25.6 5.4c-2.6-4-4.6-8.1-6.3-12.3-.3-.8-.7-1.1-1.6-1.1H50.7c-2.2 0-2.2 0-2 2.3.6 7.2 1.1 14.3 1.3 21.5.2 5.3.4 10.5.5 15.8 0 .8.3 1 1.1 1h7.7c.7 0 .9-.2.9-.9 0-1.9.1-3.8.1-5.6v-5.5c.5.3.8.6 1.1.9 2.8 3.7 5.6 7.3 8.3 11 .6.8.8.9 1.5 0 2.5-3.7 5.1-7.4 7.7-11.1.2-.3.3-.7.7-.7.2.3.1.5.1.8.1 3.3.2 6.6.2 9.9 0 .9.4 1.1 1.2 1.1 2.4 0 4.9-.1 7.3 0 1 0 1.2-.3 1.2-1.2.1-5.5.2-10.9.4-16.4.3-7.3.7-14.7 1.1-22 0-.8-.2-1-1-1-3.3 0-6.6.2-10 0-2.2-.2-3.3.6-4.1 2.7-1.2 3.7-3.4 7.2-5.5 10.8zm77.5 6.1c0 4.8.9 9.4 3.4 13.7 4.1 7.1 11 10.2 18.5 8.3 4.5-1.2 7.7-4.1 10-8 4.1-7 4.6-14.5 2.5-22.1-2.1-7.3-6.9-11.9-14.6-12.7-6.7-.7-13 1.7-16.8 8.1-2.3 3.8-3 8.2-3 12.7zM32.3 98.9c.2.8.5 1.5.6 2.2.2.9.6 1.3 1.6 1.3 3.9-.1 7.8 0 11.6 0 1.6 0 1.6 0 1.2-1.6-3.1-12.6-6.1-25.3-8.5-38.1-.1-.7-.4-1-1.2-1H23.7c-.8 0-1.1.3-1.2 1-1 6.2-2.1 12.4-3.6 18.6-1.5 6.6-3.2 13.2-4.8 19.8-.3 1.1 0 1.3 1 1.3 1.8-.1 3.7 0 5.5 0 .7 0 1-.2 1.1-.9.3-1.3.6-2.6 1.2-4 .8 1.7 1.6 3.2 2.2 4.7.3.8.6.9 1.2.3 2-1.5 3.8-2.7 6-3.6zm199.2 0c.2.9.5 1.7.7 2.5.2.8.5 1 1.3 1 4 0 8.1-.1 12.1 0 1.2 0 1.3-.4 1-1.4-3.1-12.7-6.1-25.5-8.6-38.3-.1-.7-.4-1-1.2-1h-13.9c-.8 0-1.1.3-1.2 1.1-.9 5.8-2 11.6-3.3 17.3-1.6 7.1-3.4 14.2-5.1 21.3-.2.8-.1 1 .8 1 2-.1 3.9 0 5.9 0 .6 0 .9-.2 1.1-.8.3-1.3.7-2.6 1.2-4.2 1 2.1 1.9 3.9 2.8 5.7 1.9-1.7 3.9-3.1 6.4-4.2zM130.7 61.8h-15.3c-.9 0-1.2.2-1.1 1.1.3 4.9.5 9.7.6 14.6 0 .8.3 1 1.1.9 2-.3 4-.4 6.1-.4.6 0 .8.1.9.8.2 3.5.5 7 .7 10.5.2 4 .4 8.1.5 12.1 0 .8.2 1.1 1.1 1.1h10.9c.6 0 .9-.1.9-.8.1-2.6.3-5.2.4-7.8.3-5 .6-10 .9-15.1 0-.6.2-.8.9-.8 2.1 0 4.2.1 6.2.4.6.1.9 0 .9-.7.2-4.9.4-9.8.7-14.7.1-1.1-.3-1.2-1.3-1.2h-15.1zm82.2 32.5c-3.3.6-6.4.9-9.5 1-.8 0-1-.2-1-1 .3-7 .6-14 1-20.9.2-3.5.3-7 .5-10.5 0-.5.2-1.1-.7-1.1h-16.8c-.6 0-.8.2-.7.8.1 1.5.2 2.9.3 4.4.9 11.4 1.2 22.9 1.6 34.3 0 .9.3 1.1 1.2 1.1h21.9c.5 0 1 .1 1-.7-.1-2.4.6-4.8 1.2-7.4zM103.1 61.8c-2.6 0-5.2.1-7.8 0-1.2 0-1.4.4-1.4 1.5.4 7.9.8 15.7 1.1 23.6.2 4.7.4 9.5.6 14.2 0 .7-.1 1.4 1.1 1.4 4.3-.1 8.6 0 12.8 0 .9 0 1.1-.3 1.1-1.1 0-1.8.1-3.5.2-5.3.3-11.1.9-22.1 1.5-33.2.1-1-.3-1.1-1.1-1.1h-8.1z"/><path class="st2" d="M70.5 75.2c2.1-3.6 4.3-7 5.7-10.8.8-2.1 1.8-2.8 4.1-2.7 3.3.2 6.6.1 10 0 .8 0 1 .2 1 1-.4 7.3-.8 14.7-1.1 22-.2 5.5-.3 10.9-.4 16.4 0 .9-.2 1.3-1.2 1.2-2.4-.1-4.9-.1-7.3 0-.8 0-1.2-.2-1.2-1.1 0-3.3-.1-6.6-.2-9.9 0-.3.1-.6-.1-.8-.4.1-.5.5-.7.7-2.6 3.7-5.2 7.4-7.7 11.1-.6.9-.9.8-1.5 0-2.7-3.7-5.5-7.3-8.3-11-.3-.3-.5-.7-1.1-.9v5.5c0 1.9-.1 3.8-.1 5.6 0 .7-.2.9-.9.9h-7.7c-.8 0-1-.2-1.1-1-.1-5.3-.3-10.5-.5-15.8-.3-7.2-.7-14.4-1.3-21.5-.2-2.3-.2-2.3 2-2.3h11.9c.9 0 1.3.3 1.6 1.1 1.5 4.1 3.5 8.2 6.1 12.3z"/><path d="M148 81.2c0-4.5.7-8.8 3-12.8 3.8-6.4 10-8.8 16.8-8.1 7.8.8 12.6 5.4 14.6 12.7 2.2 7.6 1.6 15.1-2.5 22.1-2.3 3.9-5.5 6.9-10 8-7.5 1.9-14.4-1.2-18.5-8.3-2.5-4.1-3.4-8.7-3.4-13.6zm22.9 4.2c0-1.2-.2-2.6-.7-3.9-.7-1.9-2.2-2.9-4.2-3-2 0-3.6.9-4.2 2.9-1.3 3.9-1 7.7 1.3 11.2 1.5 2.3 3.9 2.3 5.5.1 1.6-2.1 2.3-4.5 2.3-7.3z" fill="#199049"/><path class="st2" d="M32.3 98.9c-2.1.9-4 2.1-5.7 3.6-.7.6-.9.5-1.2-.3-.7-1.5-1.4-3-2.2-4.7-.6 1.4-.9 2.7-1.2 4-.2.7-.5.9-1.1.9-1.8 0-3.7-.1-5.5 0-1.1 0-1.3-.2-1-1.3 1.7-6.6 3.3-13.2 4.8-19.8 1.4-6.1 2.6-12.3 3.6-18.6.1-.8.4-1.1 1.2-1h13.9c.8 0 1 .3 1.2 1 2.4 12.8 5.4 25.4 8.5 38.1.4 1.6.4 1.6-1.2 1.6H34.8c-1 0-1.4-.3-1.6-1.3-.4-.7-.7-1.4-.9-2.2zm-8.5-4.1c1.6 0 3.1-.2 4.6-.5 2.8-.5 2.8-.5 1.8-3.2-.8-2.3-1.7-4.5-2.9-6.8-1.3 3.6-2.6 6.9-3.5 10.5zM231.5 98.9c-2.5 1.1-4.5 2.5-6.5 4.2-.9-1.9-1.8-3.7-2.8-5.7-.5 1.6-.9 2.9-1.2 4.2-.2.6-.4.8-1.1.8H214c-.8 0-1-.2-.8-1 1.7-7.1 3.5-14.2 5.1-21.3 1.3-5.7 2.4-11.5 3.3-17.3.1-.8.4-1.1 1.2-1.1h13.9c.8 0 1 .3 1.2 1 2.5 12.9 5.5 25.6 8.6 38.3.2 1 .2 1.4-1 1.4-4-.1-8.1 0-12.1 0-.8 0-1.2-.2-1.3-1-.1-.8-.4-1.6-.6-2.5zm-8.5-4.1c2.3-.1 4.4-.4 6.6-.9.7-.2.6-.5.4-1-.6-1.6-1.2-3.3-1.8-4.9-.5-1.1-1-2.3-1.6-3.6-1.5 3.5-2.7 6.8-3.6 10.4zM130.7 61.8h15.1c1 0 1.3.2 1.3 1.2-.3 4.9-.5 9.8-.7 14.7 0 .7-.3.8-.9.7-2.1-.3-4.1-.4-6.2-.4-.6 0-.8.2-.9.8-.3 5-.6 10-.9 15.1-.2 2.6-.3 5.2-.4 7.8 0 .7-.3.9-.9.8h-10.9c-.9 0-1.1-.3-1.1-1.1-.1-4-.3-8.1-.5-12.1-.2-3.5-.5-7-.7-10.5 0-.7-.3-.8-.9-.8-2 0-4.1.1-6.1.4-.8.1-1-.1-1.1-.9-.2-4.9-.4-9.7-.6-14.6 0-.9.3-1.2 1.1-1.1h15.3zM212.9 94.3c-.6 2.6-1.3 4.9-1.5 7.4-.1.7-.6.7-1 .7h-21.9c-.9 0-1.1-.2-1.2-1.1-.4-11.5-.6-22.9-1.6-34.3-.1-1.5-.2-2.9-.3-4.4 0-.6.2-.8.7-.8h16.8c.9 0 .8.6.7 1.1-.1 3.5-.3 7-.5 10.5-.3 7-.6 14-1 20.9 0 .8.2 1 1 1 3.4-.1 6.5-.3 9.8-1zM103.1 61.8h8c.8 0 1.2.1 1.1 1.1-.6 11-1.2 22.1-1.5 33.2 0 1.8-.2 3.5-.2 5.3 0 .8-.2 1.1-1.1 1.1-4.3 0-8.6-.1-12.8 0-1.1 0-1.1-.7-1.1-1.4-.2-4.7-.4-9.5-.6-14.2-.4-7.9-.7-15.7-1.1-23.6-.1-1.1.2-1.5 1.4-1.5h7.9z"/><path class="st4" d="M170.9 85.4c0 2.9-.7 5.3-2.3 7.4-1.7 2.2-4 2.2-5.5-.1-2.3-3.5-2.6-7.3-1.3-11.2.7-2 2.2-2.9 4.2-2.9s3.5 1 4.2 3c.5 1.2.7 2.6.7 3.8zm-3.6.1c0-.9.1-1.7-.2-2.6-.2-.6-.5-.9-1.1-.9-.7 0-1 .3-1.1.9-.4 2.3-.5 4.7.5 6.9.3.7.6.7.9 0 .8-1.3 1.1-2.7 1-4.3zM23.8 94.8c.9-3.6 2.1-6.9 3.6-10.4 1.2 2.3 2.1 4.5 2.9 6.8.9 2.7.9 2.7-1.8 3.2-1.6.2-3.1.4-4.7.4zM223 94.8c.9-3.6 2.1-6.9 3.6-10.5.6 1.4 1.2 2.5 1.6 3.6.6 1.6 1.2 3.3 1.8 4.9.2.5.3.9-.4 1-2.1.7-4.3.9-6.6 1z"/><path class="st3" d="M167.3 85.5c.1 1.6-.2 3-1 4.4-.4.6-.6.6-.9 0-1-2.2-1-4.6-.5-6.9.1-.6.4-.9 1.1-.9.6 0 .9.3 1.1.9.3.8.2 1.6.2 2.5z"/></svg>

